{"title":"Mako Mermaids S04E02 720p WEBRip x264-TheRival","uid":14777716,"size":433968370,"categoryP":"video","categoryS":"hd___tv_shows","magnet":"?xt=urn:btih:1b622513891489e7df220d464e3d931cfde4d94d&amp;dn=Mako+Mermaids+S04E02+720p+WEBRip+x264-TheRival&amp;tr=udp%3A%2F%2Ftracker.leechers-paradise.org%3A6969&amp;tr=udp%3A%2F%2Fzer0day.ch%3A1337&amp;tr=udp%3A%2F%2Fopen.demonii.com%3A1337&amp;tr=udp%3A%2F%2Ftracker.coppersurfer.tk%3A6969&amp;tr=udp%3A%2F%2Fexodus.desync.com%3A6969","seeders":3,"leechers":0,"uploader":"TheRival","files":1,"time":1464964416,"description":"Summary:\r\nReal-life mermaids Sirena, Nixie and Lyla are part of a mermaid pod, living in the waters off Mako Island. Their job is to protect the Moon Pool and guard it from trespassers, but on the night of a full moon, the mischievous mermaid girls neglect their duties. Suddenly sixteen-year-old land-dweller Zac enters the Moon Pool and is given a fish-like tail and amazing powers. The girls must venture onto land and take back Zac s powers - or risk being cast out forever!\r\n\r\nScreens: \nhttp://extraimago.com/image/aZ0v \nhttp://extraimago.com/image/aZ0A \nhttp://extraimago.com/image/aZ0W\r\n\r\nVideo\r\nID : 1\r\nFormat : AVC\r\nFormat/Info : Advanced Video Codec\r\nFormat profile :   \r\nFormat settings, CABAC : Yes\r\nFormat settings, ReFrames : 2 frames\r\nFormat settings, GOP : M=1, N=24\r\nCodec ID : avc1\r\nCodec ID/Info : Advanced Video Coding\r\nDuration : 24mn 5s\r\nBit rate mode : Variable\r\nBit rate : 2 269 Kbps\r\nMaximum bit rate : 3 456 Kbps\r\nWidth : 1 280 pixels\r\nHeight : 720 pixels\r\nDisplay aspect ratio : 16:9\r\nFrame rate mode : Constant\r\nFrame rate : 25.000 fps\r\nColor space : YUV\r\nChroma subsampling : 4:2:0\r\nBit depth : 8 bits\r\nScan type : Progressive\r\nBits/(Pixel*Frame) : 0.098\r\nStream size : 391 MiB (94%)\r\nEncoded date : UTC 2016-06-03 01:14:07\r\nTagged date : UTC 2016-06-03 01:17:19\r\nColor primaries : BT.709\r\nTransfer characteristics : BT.709\r\nMatrix coefficients : BT.709\r\n\r\nAudio\r\nID : 2\r\nFormat : AAC\r\nFormat/Info : Advanced Audio Codec\r\nFormat profile : LC\r\nCodec ID : 40\r\nDuration : 24mn 5s\r\nBit rate mode : Variable\r\nBit rate : 128 Kbps\r\nMaximum bit rate : 131 Kbps\r\nChannel(s) : 2 channels\r\nChannel positions : Front: L R\r\nSampling rate : 48.0 KHz\r\nFrame rate : 46.875 fps (1024 spf)\r\nCompression mode : Lossy\r\nStream size : 22.1 MiB (5%)\r\nTitle : English (aac 2.0)\r\nLanguage : English\r\nDefault : Yes\r\nAlternate group : 1","torrent":{"xt":"urn:btih:1b622513891489e7df220d464e3d931cfde4d94d","amp;dn":"Mako+Mermaids+S04E02+720p+WEBRip+x264-TheRival","amp;tr":["udp%3A%2F%2Ftracker.leechers-paradise.org%3A6969","udp%3A%2F%2Fzer0day.ch%3A1337","udp%3A%2F%2Fopen.demonii.com%3A1337","udp%3A%2F%2Ftracker.coppersurfer.tk%3A6969","udp%3A%2F%2Fexodus.desync.com%3A6969"],"infoHash":"1b622513891489e7df220d464e3d931cfde4d94d","infoHashBuffer":{"type":"Buffer","data":[27,98,37,19,137,20,137,231,223,34,13,70,78,61,147,28,253,228,217,77]},"announce":[],"urlList":[]}}